<mxfile host="Electron" modified="2023-06-27T10:30:45.889Z" agent="Mozilla/5.0 (Windows NT 10.0; Win64; x64) AppleWebKit/537.36 (KHTML, like Gecko) draw.io/21.5.0 Chrome/112.0.5615.204 Electron/24.5.1 Safari/537.36" etag="eCA0V4HO4gdEZCcoMJ9V" version="21.5.0" type="device">
  <diagram name="Page-1" id="VP97hoIN940QfXVEOiur">
    <mxGraphModel dx="1434" dy="844" grid="1" gridSize="10" guides="1" tooltips="1" connect="1" arrows="1" fold="1" page="1" pageScale="1" pageWidth="827" pageHeight="1169" math="0" shadow="0">
      <root>
        <mxCell id="0" />
        <mxCell id="1" parent="0" />
        <mxCell id="RGekV53N6mkEi90mnk6w-1" value="" style="ellipse;html=1;shape=startState;fillColor=#000000;strokeColor=#ff0000;" vertex="1" parent="1">
          <mxGeometry x="399" y="10" width="30" height="30" as="geometry" />
        </mxCell>
        <mxCell id="RGekV53N6mkEi90mnk6w-2" value="" style="edgeStyle=orthogonalEdgeStyle;html=1;verticalAlign=bottom;endArrow=open;endSize=8;strokeColor=#ff0000;rounded=0;" edge="1" source="RGekV53N6mkEi90mnk6w-1" parent="1">
          <mxGeometry relative="1" as="geometry">
            <mxPoint x="414" y="100" as="targetPoint" />
          </mxGeometry>
        </mxCell>
        <mxCell id="RGekV53N6mkEi90mnk6w-5" value="" style="edgeStyle=orthogonalEdgeStyle;rounded=0;orthogonalLoop=1;jettySize=auto;html=1;" edge="1" parent="1" source="RGekV53N6mkEi90mnk6w-3" target="RGekV53N6mkEi90mnk6w-4">
          <mxGeometry relative="1" as="geometry" />
        </mxCell>
        <mxCell id="RGekV53N6mkEi90mnk6w-3" value="Saisir le rayon" style="html=1;whiteSpace=wrap;" vertex="1" parent="1">
          <mxGeometry x="359" y="100" width="110" height="50" as="geometry" />
        </mxCell>
        <mxCell id="RGekV53N6mkEi90mnk6w-7" value="" style="edgeStyle=orthogonalEdgeStyle;rounded=0;orthogonalLoop=1;jettySize=auto;html=1;" edge="1" parent="1" source="RGekV53N6mkEi90mnk6w-4" target="RGekV53N6mkEi90mnk6w-6">
          <mxGeometry relative="1" as="geometry" />
        </mxCell>
        <mxCell id="RGekV53N6mkEi90mnk6w-4" value="Saisir l&#39;angle" style="whiteSpace=wrap;html=1;" vertex="1" parent="1">
          <mxGeometry x="354" y="225" width="120" height="60" as="geometry" />
        </mxCell>
        <mxCell id="RGekV53N6mkEi90mnk6w-9" value="" style="edgeStyle=orthogonalEdgeStyle;rounded=0;orthogonalLoop=1;jettySize=auto;html=1;" edge="1" parent="1" source="RGekV53N6mkEi90mnk6w-6" target="RGekV53N6mkEi90mnk6w-8">
          <mxGeometry relative="1" as="geometry" />
        </mxCell>
        <mxCell id="RGekV53N6mkEi90mnk6w-6" value="Calcul de l&#39;aire de secteur circulaire&lt;br&gt;(Pi*rayon^2*angle)" style="whiteSpace=wrap;html=1;" vertex="1" parent="1">
          <mxGeometry x="354" y="365" width="120" height="60" as="geometry" />
        </mxCell>
        <mxCell id="RGekV53N6mkEi90mnk6w-11" value="" style="edgeStyle=orthogonalEdgeStyle;rounded=0;orthogonalLoop=1;jettySize=auto;html=1;" edge="1" parent="1" source="RGekV53N6mkEi90mnk6w-8" target="RGekV53N6mkEi90mnk6w-10">
          <mxGeometry relative="1" as="geometry" />
        </mxCell>
        <mxCell id="RGekV53N6mkEi90mnk6w-8" value="Afficher l&#39;aire du secteur circulaire" style="whiteSpace=wrap;html=1;" vertex="1" parent="1">
          <mxGeometry x="354" y="505" width="120" height="60" as="geometry" />
        </mxCell>
        <mxCell id="RGekV53N6mkEi90mnk6w-10" value="" style="ellipse;html=1;shape=endState;fillColor=#000000;strokeColor=#ff0000;" vertex="1" parent="1">
          <mxGeometry x="399" y="620" width="30" height="30" as="geometry" />
        </mxCell>
      </root>
    </mxGraphModel>
  </diagram>
</mxfile>
